<?xml version="1.0" standalone="no"?>
<svg xmlns="http://www.w3.org/2000/svg" viewBox="0 0 106 70" width="106" height="70"><g fill="#ff6506" color="#ff6506" transform="translate(30.782 0) scale(2.75) "><svg width="16.0" height="16.0" x="0.0" y="0.0" viewBox="0 0 16 16"><g><polygon points="5,10 8,10 8,6 11,6 11,10 14,10 14,6 16,6 14,4.154 14,1 12,1 12,2.308 9.5,0 3,6 5,6  "></polygon><rect y="11" width="2" height="4"></rect><path d="M14,14h-4c-0.143,0-0.399-0.106-0.5-0.207l-1.319-1.319l2.417-0.483c0.253-0.051,0.425-0.284,0.4-0.539   C10.973,11.195,10.757,11,10.5,11H3v3h2v-0.023l1.795,1.571C7.095,15.81,7.602,16,8,16h2c0.314,0,0.8-0.06,1.106-0.136l3.029-0.758   c0.521-0.13,0.598-0.415,0.571-0.632S14.536,14,14,14z"></path></g></svg></g><path fill="#00005f" fill-rule="nonzero" d="M7.37 5.78L7.37 5.78Q7.37 5.65 7.31 5.39Q7.25 5.13 7.17 4.80Q7.09 4.46 6.98 4.08Q6.88 3.70 6.80 3.34Q6.71 2.98 6.66 2.66Q6.60 2.34 6.60 2.13L6.60 2.13Q6.60 1.86 6.75 1.69Q6.90 1.52 7.14 1.43Q7.37 1.34 7.64 1.30Q7.91 1.27 8.16 1.27L8.16 1.27Q8.46 1.27 8.75 1.44Q9.04 1.61 9.14 2.04L9.14 2.04Q9.27 2.50 9.36 2.96Q9.45 3.42 9.52 3.86Q9.59 4.30 9.65 4.71Q9.71 5.12 9.79 5.47L9.79 5.47Q9.86 5.75 9.97 5.92Q10.08 6.08 10.24 6.17Q10.39 6.26 10.58 6.28Q10.76 6.30 10.97 6.30L10.97 6.30Q11.20 6.30 11.47 6.26Q11.74 6.21 12 6.21L12 6.21Q12.16 6.21 12.32 6.26Q12.48 6.32 12.61 6.45Q12.74 6.59 12.81 6.82Q12.89 7.05 12.89 7.42L12.89 7.42Q12.89 7.72 12.77 7.93Q12.66 8.13 12.33 8.20L12.33 8.20L11.91 8.30Q11.71 8.33 11.54 8.35Q11.37 8.37 11.11 8.39L11.11 8.39Q10.56 8.45 10.56 8.87L10.56 8.87Q10.56 8.91 10.61 9.19Q10.65 9.47 10.73 9.88Q10.80 10.30 10.90 10.80Q10.99 11.30 11.08 11.75Q11.17 12.21 11.24 12.57Q11.31 12.93 11.34 13.08L11.34 13.08Q11.40 13.34 11.44 13.48Q11.47 13.62 11.47 13.86L11.47 13.86Q11.47 14.05 11.37 14.23Q11.26 14.41 11.06 14.55Q10.85 14.70 10.56 14.78Q10.27 14.87 9.89 14.87L9.89 14.87Q9.48 14.87 9.30 14.62Q9.12 14.37 9.05 14.04L9.05 14.04Q8.89 13.43 8.76 12.79Q8.63 12.14 8.50 11.51Q8.38 10.88 8.27 10.27Q8.16 9.67 8.06 9.12L8.06 9.12Q8.00 8.86 7.85 8.74Q7.70 8.61 7.46 8.61L7.46 8.61Q6.67 8.61 5.87 8.67Q5.06 8.72 4.29 8.75L4.29 8.75Q4.02 8.78 3.87 8.93Q3.71 9.08 3.71 9.33L3.71 9.33Q3.71 9.88 3.73 10.42Q3.74 10.96 3.74 11.52L3.74 11.52Q3.74 12.16 3.72 12.84Q3.70 13.52 3.67 14.16L3.67 14.16Q3.64 14.39 3.53 14.54Q3.42 14.70 3.25 14.79Q3.08 14.88 2.87 14.92Q2.65 14.95 2.43 14.95L2.43 14.95Q1.88 14.95 1.57 14.77Q1.27 14.59 1.27 14.16L1.27 14.16Q1.27 13.50 1.30 12.79Q1.34 12.07 1.34 11.34L1.34 11.34Q1.34 10.85 1.32 10.39Q1.31 9.93 1.31 9.43L1.31 9.43Q1.31 9.21 1.21 9.10Q1.11 8.99 0.97 8.92Q0.83 8.85 0.66 8.78Q0.48 8.72 0.34 8.59Q0.20 8.46 0.10 8.21Q0 7.97 0 7.54L0 7.54Q0 7.30 0.09 7.17Q0.18 7.03 0.31 6.95Q0.45 6.87 0.60 6.81Q0.75 6.76 0.88 6.68Q1.02 6.60 1.11 6.47Q1.20 6.35 1.20 6.12L1.20 6.12Q1.20 5.98 1.18 5.78Q1.17 5.59 1.16 5.41Q1.15 5.24 1.14 5.10Q1.13 4.97 1.13 4.92L1.13 4.92Q1.13 4.52 1.24 4.28Q1.35 4.04 1.51 3.92Q1.68 3.80 1.88 3.76Q2.09 3.71 2.27 3.71L2.27 3.71Q2.98 3.71 3.25 3.98Q3.53 4.24 3.55 4.75L3.55 4.75L3.60 5.98Q3.62 6.26 3.75 6.40Q3.88 6.55 4.17 6.55L4.17 6.55L6.83 6.46Q7.17 6.43 7.27 6.27Q7.37 6.11 7.37 5.78ZM13.93 10.77L13.93 10.77Q13.93 10.57 13.98 10.32Q14.03 10.08 14.03 9.79L14.03 9.79Q14.03 9.59 13.86 9.48Q13.69 9.38 13.48 9.25Q13.27 9.12 13.10 8.92Q12.93 8.72 12.93 8.34L12.93 8.34Q12.93 8.07 13.07 7.80Q13.22 7.54 13.50 7.31L13.50 7.31Q14.19 6.80 14.94 6.39Q15.68 5.98 16.42 5.70Q17.17 5.41 17.89 5.26Q18.62 5.11 19.29 5.11L19.29 5.11Q20.41 5.11 21.40 5.53Q22.39 5.94 23.13 6.66Q23.86 7.38 24.29 8.35Q24.71 9.32 24.71 10.42L24.71 10.42Q24.71 11.50 24.26 12.46Q23.81 13.43 23.05 14.16Q22.29 14.88 21.26 15.31Q20.24 15.74 19.10 15.74L19.10 15.74Q17.99 15.74 17.04 15.36Q16.09 14.99 15.40 14.33Q14.71 13.66 14.32 12.76Q13.93 11.85 13.93 10.77ZM19.36 13.63L19.36 13.63Q19.85 13.63 20.38 13.43Q20.91 13.23 21.35 12.85Q21.79 12.47 22.07 11.92Q22.36 11.37 22.36 10.68L22.36 10.68Q22.36 9.97 22.10 9.36Q21.84 8.75 21.39 8.30Q20.94 7.85 20.33 7.59Q19.71 7.34 19.00 7.34L19.00 7.34Q17.70 7.34 17.00 8.01Q16.31 8.68 16.31 10.08L16.31 10.08Q16.31 10.84 16.54 11.49Q16.77 12.14 17.18 12.62Q17.59 13.09 18.15 13.36Q18.70 13.63 19.36 13.63ZM28.70 10.51L28.70 10.51Q28.70 12.08 29.18 12.94Q29.66 13.79 30.57 13.79L30.57 13.79Q31.15 13.79 31.63 13.45Q32.12 13.11 32.47 12.50Q32.82 11.89 33.02 11.06Q33.21 10.22 33.21 9.23L33.21 9.23Q33.21 8.64 33.16 8.20Q33.12 7.76 33.06 7.41Q33.01 7.07 32.96 6.80Q32.92 6.53 32.92 6.28L32.92 6.28Q32.92 5.91 33.23 5.74Q33.55 5.57 34.24 5.57L34.24 5.57Q35.12 5.57 35.61 5.96Q36.09 6.36 36.09 7.13L36.09 7.13Q36.09 9.20 35.69 10.85Q35.29 12.50 34.53 13.66Q33.77 14.81 32.70 15.43Q31.62 16.05 30.28 16.05L30.28 16.05Q29.33 16.05 28.53 15.66Q27.73 15.27 27.15 14.56Q26.57 13.85 26.24 12.87Q25.91 11.89 25.91 10.72L25.91 10.72Q25.91 10.28 25.93 9.77Q25.96 9.27 26.00 8.69Q26.05 8.11 26.13 7.43Q26.20 6.75 26.30 5.95L26.30 5.95Q26.33 5.61 26.62 5.41Q26.91 5.20 27.35 5.20L27.35 5.20Q27.75 5.20 28.10 5.29Q28.45 5.37 28.71 5.51Q28.96 5.65 29.10 5.84Q29.25 6.02 29.25 6.23L29.25 6.23Q29.25 6.45 29.16 6.90Q29.07 7.35 28.97 7.93Q28.88 8.51 28.79 9.18Q28.70 9.86 28.70 10.51ZM40.42 4.49L40.42 4.49Q41.20 4.49 42.04 4.69Q42.87 4.90 43.56 5.22Q44.25 5.54 44.70 5.94Q45.14 6.34 45.14 6.71L45.14 6.71Q45.14 6.90 44.98 7.13Q44.81 7.36 44.58 7.56Q44.34 7.77 44.07 7.90Q43.79 8.04 43.58 8.04L43.58 8.04Q43.30 8.04 42.96 7.80Q42.61 7.57 42.19 7.28Q41.78 7.00 41.29 6.76Q40.79 6.53 40.22 6.53L40.22 6.53Q39.84 6.53 39.60 6.71Q39.36 6.89 39.36 7.22L39.36 7.22Q39.36 7.51 39.64 7.81Q39.93 8.11 40.39 8.43Q40.85 8.74 41.44 9.09Q42.02 9.45 42.64 9.84Q43.25 10.24 43.84 10.71Q44.43 11.18 44.89 11.73Q45.35 12.28 45.63 12.93Q45.91 13.58 45.91 14.34L45.91 14.34Q45.91 15 45.68 15.54Q45.45 16.08 45.01 16.46Q44.58 16.85 43.98 17.06Q43.38 17.27 42.67 17.27L42.67 17.27Q41.77 17.27 41.00 17.00Q40.24 16.72 39.69 16.24Q39.14 15.76 38.83 15.09Q38.52 14.43 38.52 13.63L38.52 13.63Q38.52 12.60 38.89 12.13Q39.26 11.66 40.05 11.66L40.05 11.66Q40.55 11.66 40.84 11.85Q41.13 12.04 41.13 12.30L41.13 12.30Q41.13 12.45 41.09 12.59Q41.04 12.74 40.99 12.90Q40.93 13.05 40.89 13.23Q40.85 13.41 40.85 13.58L40.85 13.58Q40.85 13.89 40.99 14.17Q41.13 14.45 41.37 14.67Q41.61 14.88 41.93 15.01Q42.25 15.14 42.60 15.14L42.60 15.14Q43.54 15.14 43.54 14.37L43.54 14.37Q43.54 13.76 43.05 13.21Q42.57 12.67 41.85 12.15Q41.12 11.63 40.28 11.10Q39.45 10.57 38.72 10.00Q37.99 9.42 37.51 8.77Q37.03 8.12 37.03 7.36L37.03 7.36Q37.03 6.73 37.29 6.20Q37.56 5.67 38.02 5.29Q38.47 4.91 39.09 4.70Q39.70 4.49 40.42 4.49ZM56.31 12.09L56.31 12.09Q56.65 11.80 56.98 11.80L56.98 11.80Q57.16 11.80 57.32 11.89Q57.47 11.99 57.66 12.19L57.66 12.19Q57.83 12.46 57.91 12.63Q57.98 12.80 57.98 12.96L57.98 12.96Q57.98 13.31 57.63 13.63L57.63 13.63Q57.07 14.10 56.41 14.47Q55.76 14.84 55.04 15.09Q54.33 15.35 53.57 15.49Q52.80 15.62 52.05 15.62L52.05 15.62Q51.11 15.62 50.27 15.38Q49.44 15.14 48.79 14.70Q48.14 14.25 47.70 13.62Q47.25 13.00 47.06 12.21L47.06 12.21Q46.96 11.88 46.87 11.78Q46.78 11.68 46.58 11.68L46.58 11.68Q46.15 11.68 45.91 11.47Q45.68 11.26 45.68 10.86L45.68 10.86Q45.68 10.70 45.70 10.65L45.70 10.65L45.73 10.42Q45.79 10.00 45.96 9.81Q46.13 9.62 46.49 9.62L46.49 9.62L46.66 9.62Q47.16 9.62 47.36 9.16L47.36 9.16Q47.72 8.36 48.28 7.69Q48.84 7.02 49.55 6.54Q50.25 6.07 51.05 5.81Q51.86 5.54 52.69 5.54L52.69 5.54Q53.55 5.54 54.31 5.79Q55.07 6.05 55.63 6.49Q56.19 6.94 56.51 7.54Q56.84 8.13 56.84 8.82L56.84 8.82Q56.84 9.30 56.65 9.70Q56.46 10.10 56.11 10.40Q55.76 10.70 55.26 10.89Q54.76 11.07 54.13 11.13L54.13 11.13L50.06 11.54Q49.83 11.54 49.68 11.66Q49.54 11.78 49.54 11.98L49.54 11.98Q49.54 12.28 49.76 12.56Q49.99 12.84 50.37 13.06Q50.75 13.28 51.25 13.41Q51.75 13.54 52.28 13.54L52.28 13.54Q52.78 13.54 53.31 13.44Q53.85 13.34 54.37 13.15Q54.89 12.96 55.38 12.70Q55.88 12.43 56.31 12.09ZM53.70 9.07L53.70 9.07Q53.87 9.04 54 8.90Q54.13 8.77 54.13 8.57L54.13 8.57Q54.13 8.39 54 8.24Q53.87 8.09 53.65 7.96Q53.43 7.84 53.13 7.77Q52.84 7.70 52.51 7.70L52.51 7.70Q52.03 7.70 51.53 7.84Q51.02 7.98 50.61 8.21Q50.20 8.44 49.95 8.71Q49.69 8.99 49.69 9.26L49.69 9.26Q49.69 9.53 50.02 9.53L50.02 9.53Q50.21 9.53 50.66 9.48Q51.11 9.43 51.64 9.37Q52.18 9.30 52.73 9.22Q53.29 9.14 53.70 9.07ZM62.05 5.78L62.05 5.78Q61.82 5.87 61.59 5.87L61.59 5.87Q61.03 5.87 60.82 5.20L60.82 5.20Q60.76 5.03 60.74 4.91Q60.73 4.79 60.73 4.70L60.73 4.70Q60.73 4.15 61.35 3.88L61.35 3.88Q62.58 3.39 63.86 3.08Q65.13 2.78 66.43 2.78L66.43 2.78Q67.04 2.78 67.63 2.91Q68.23 3.04 68.70 3.35Q69.16 3.67 69.46 4.20Q69.75 4.72 69.75 5.52L69.75 5.52Q69.75 6.08 69.52 6.60Q69.29 7.11 68.92 7.58Q68.54 8.05 68.06 8.47Q67.58 8.89 67.08 9.25Q66.57 9.60 66.08 9.88Q65.59 10.17 65.19 10.38L65.19 10.38Q64.85 10.58 64.85 10.79L64.85 10.79Q64.85 11.04 65.21 11.18L65.21 11.18Q66.47 11.63 67.78 12.01Q69.09 12.40 70.44 12.88L70.44 12.88Q71.07 13.11 71.07 13.61L71.07 13.61Q71.07 13.84 70.94 14.08Q70.80 14.32 70.64 14.52L70.64 14.52Q70.30 15.02 69.80 15.02L69.80 15.02Q69.62 15.02 69.36 14.95L69.36 14.95Q68.60 14.66 67.73 14.34Q66.86 14.03 65.95 13.72Q65.04 13.41 64.16 13.12Q63.28 12.83 62.53 12.60L62.53 12.60Q62.26 12.53 62.17 12.53L62.17 12.53Q62.07 12.53 62.02 12.57Q61.97 12.61 61.97 12.74L61.97 12.74Q61.97 12.77 61.98 12.83Q61.99 12.88 61.99 12.94L61.99 12.94Q62.03 13.11 62.08 13.40Q62.13 13.69 62.19 13.99Q62.24 14.30 62.27 14.57Q62.31 14.85 62.31 15.02L62.31 15.02Q62.31 15.68 61.59 15.94L61.59 15.94L61.07 16.10Q60.95 16.14 60.86 16.15Q60.76 16.17 60.66 16.17L60.66 16.17Q60.01 16.17 59.91 15.38L59.91 15.38Q59.63 13.24 59.19 11.17Q58.75 9.09 58.18 7.03L58.18 7.03Q58.15 6.91 58.14 6.83Q58.14 6.74 58.14 6.67L58.14 6.67Q58.14 6.05 58.80 5.82L58.80 5.82Q59.05 5.74 59.21 5.70Q59.37 5.65 59.47 5.62Q59.57 5.59 59.62 5.58Q59.67 5.57 59.72 5.57L59.72 5.57Q60.35 5.57 60.54 6.28L60.54 6.28Q60.79 7.20 61.00 8.05Q61.22 8.91 61.39 9.74L61.39 9.74Q61.49 10.15 61.73 10.15L61.73 10.15Q61.80 10.15 61.90 10.12Q61.99 10.09 62.12 10.03L62.12 10.03Q62.50 9.83 63.03 9.54Q63.56 9.25 64.14 8.89Q64.72 8.53 65.29 8.13Q65.86 7.73 66.31 7.34Q66.76 6.94 67.04 6.55Q67.32 6.16 67.32 5.82L67.32 5.82Q67.32 5.61 67.26 5.44Q67.20 5.26 67.02 5.13Q66.84 5.00 66.54 4.93Q66.25 4.86 65.79 4.86L65.79 4.86Q65.34 4.86 64.86 4.94Q64.37 5.02 63.89 5.14Q63.41 5.27 62.94 5.44Q62.47 5.60 62.05 5.78ZM81.27 12.09L81.27 12.09Q81.61 11.80 81.94 11.80L81.94 11.80Q82.13 11.80 82.28 11.89Q82.43 11.99 82.62 12.19L82.62 12.19Q82.79 12.46 82.87 12.63Q82.95 12.80 82.95 12.96L82.95 12.96Q82.95 13.31 82.59 13.63L82.59 13.63Q82.03 14.10 81.38 14.47Q80.72 14.84 80.00 15.09Q79.29 15.35 78.53 15.49Q77.77 15.62 77.02 15.62L77.02 15.62Q76.07 15.62 75.23 15.38Q74.40 15.14 73.75 14.70Q73.10 14.25 72.66 13.62Q72.21 13.00 72.02 12.21L72.02 12.21Q71.92 11.88 71.83 11.78Q71.74 11.68 71.54 11.68L71.54 11.68Q71.11 11.68 70.88 11.47Q70.64 11.26 70.64 10.86L70.64 10.86Q70.64 10.70 70.66 10.65L70.66 10.65L70.69 10.42Q70.75 10.00 70.92 9.81Q71.09 9.62 71.45 9.62L71.45 9.62L71.63 9.62Q72.12 9.62 72.32 9.16L72.32 9.16Q72.68 8.36 73.24 7.69Q73.80 7.02 74.51 6.54Q75.21 6.07 76.01 5.81Q76.82 5.54 77.65 5.54L77.65 5.54Q78.52 5.54 79.27 5.79Q80.03 6.05 80.59 6.49Q81.15 6.94 81.47 7.54Q81.80 8.13 81.80 8.82L81.80 8.82Q81.80 9.30 81.61 9.70Q81.42 10.10 81.07 10.40Q80.72 10.70 80.22 10.89Q79.72 11.07 79.09 11.13L79.09 11.13L75.02 11.54Q74.79 11.54 74.64 11.66Q74.50 11.78 74.50 11.98L74.50 11.98Q74.50 12.28 74.72 12.56Q74.95 12.84 75.33 13.06Q75.71 13.28 76.21 13.41Q76.71 13.54 77.24 13.54L77.24 13.54Q77.74 13.54 78.28 13.44Q78.81 13.34 79.33 13.15Q79.85 12.96 80.34 12.70Q80.84 12.43 81.27 12.09ZM78.66 9.07L78.66 9.07Q78.83 9.04 78.96 8.90Q79.09 8.77 79.09 8.57L79.09 8.57Q79.09 8.39 78.96 8.24Q78.83 8.09 78.61 7.96Q78.39 7.84 78.09 7.77Q77.80 7.70 77.47 7.70L77.47 7.70Q76.99 7.70 76.49 7.84Q75.98 7.98 75.57 8.21Q75.16 8.44 74.91 8.71Q74.65 8.99 74.65 9.26L74.65 9.26Q74.65 9.53 74.98 9.53L74.98 9.53Q75.18 9.53 75.62 9.48Q76.07 9.43 76.61 9.37Q77.14 9.30 77.70 9.22Q78.25 9.14 78.66 9.07ZM83.88 5.20L83.88 5.20Q83.88 5.03 84.04 4.86Q84.19 4.69 84.43 4.55Q84.68 4.42 84.99 4.33Q85.30 4.24 85.62 4.24L85.62 4.24Q85.79 4.24 85.92 4.34Q86.04 4.43 86.13 4.69Q86.23 4.96 86.30 5.43Q86.38 5.91 86.45 6.67L86.45 6.67Q86.50 6.90 86.54 7.03Q86.58 7.15 86.65 7.15L86.65 7.15Q86.75 7.15 86.86 6.79L86.86 6.79Q87.71 4.31 89.33 4.31L89.33 4.31Q90.08 4.31 90.70 4.78Q91.31 5.25 91.85 6.31Q92.38 7.37 92.86 9.10Q93.34 10.83 93.82 13.36L93.82 13.36Q93.84 13.49 93.86 13.59Q93.87 13.70 93.87 13.79L93.87 13.79Q93.87 14.06 93.74 14.26Q93.62 14.45 93.42 14.57Q93.22 14.70 92.98 14.76Q92.73 14.82 92.48 14.82L92.48 14.82Q91.99 14.82 91.78 14.72Q91.56 14.61 91.50 14.32L91.50 14.32Q91.16 12.54 90.84 11.16Q90.52 9.77 90.21 8.83Q89.89 7.89 89.59 7.39Q89.29 6.90 88.98 6.90L88.98 6.90Q88.68 6.90 88.41 7.28Q88.15 7.66 87.90 8.47Q87.66 9.28 87.43 10.52Q87.20 11.77 86.99 13.49L86.99 13.49Q86.93 13.96 86.52 14.24Q86.11 14.52 85.48 14.52L85.48 14.52Q85.05 14.52 84.83 14.34Q84.61 14.17 84.59 13.86L84.59 13.86Q84.48 11.43 84.36 9.85Q84.23 8.27 84.13 7.32Q84.02 6.36 83.95 5.89Q83.88 5.43 83.88 5.20ZM96.18 1.13L96.18 1.13Q96.18 0.50 96.53 0.25Q96.88 0 97.69 0L97.69 0Q97.98 0 98.19 0.05Q98.39 0.11 98.54 0.25Q98.68 0.39 98.77 0.62Q98.86 0.84 98.92 1.20L98.92 1.20Q99.06 2.29 99.23 3.45Q99.40 4.61 99.59 5.78L99.59 5.78Q99.66 6.30 100.14 6.30L100.14 6.30Q100.27 6.30 100.56 6.28Q100.86 6.25 101.27 6.21Q101.68 6.16 102.16 6.12Q102.63 6.07 103.11 6.03Q103.58 5.99 104.01 5.96Q104.44 5.93 104.77 5.93L104.77 5.93Q105.02 5.93 105.18 6.03Q105.33 6.13 105.42 6.29Q105.50 6.45 105.53 6.64Q105.56 6.83 105.56 7.03L105.56 7.03Q105.56 7.21 105.50 7.39Q105.43 7.58 105.32 7.73Q105.21 7.88 105.05 7.97Q104.88 8.06 104.67 8.06L104.67 8.06Q103.65 8.06 102.62 8.13Q101.58 8.19 100.55 8.30L100.55 8.30Q100.02 8.37 100.02 8.82L100.02 8.82Q100.02 8.86 100.03 8.91Q100.04 8.96 100.04 9L100.04 9Q100.18 10.02 100.31 10.91Q100.43 11.80 100.52 12.50Q100.61 13.20 100.66 13.66Q100.71 14.12 100.71 14.27L100.71 14.27Q100.71 14.70 100.63 14.98Q100.55 15.27 100.36 15.45Q100.17 15.63 99.86 15.71Q99.55 15.79 99.08 15.79L99.08 15.79Q98.64 15.79 98.43 15.57Q98.21 15.36 98.19 14.93L98.19 14.93Q98.12 13.55 97.97 12.15Q97.82 10.75 97.62 9.35L97.62 9.35Q97.51 8.85 97.09 8.85L97.09 8.85Q97.05 8.85 97.01 8.86Q96.96 8.87 96.93 8.87L96.93 8.87Q96.20 9.04 95.55 9.20Q94.91 9.36 94.35 9.55L94.35 9.55Q94.03 9.66 93.79 9.70Q93.54 9.74 93.34 9.74L93.34 9.74Q93.07 9.74 92.94 9.50Q92.81 9.26 92.81 8.89L92.81 8.89Q92.81 8.77 92.84 8.60Q92.86 8.43 92.92 8.26Q92.99 8.09 93.11 7.94Q93.23 7.79 93.45 7.70L93.45 7.70Q93.94 7.50 94.76 7.28Q95.58 7.07 96.61 6.88L96.61 6.88Q96.84 6.82 96.98 6.69Q97.11 6.55 97.11 6.28L97.11 6.28Q97.11 6.22 97.11 6.16Q97.11 6.09 97.09 6.02L97.09 6.02Q96.90 4.95 96.73 4.06Q96.56 3.18 96.44 2.54Q96.32 1.91 96.25 1.55Q96.18 1.18 96.18 1.13Z" transform="translate(0, 52)"></path></svg>